<?xml version="1.0" encoding="UTF-8" standalone="no"?>
<!-- Created with Inkscape (http://www.inkscape.org/) -->

<svg
   width="177.14104mm"
   height="41.198799mm"
   viewBox="0 0 177.14104 41.198799"
   version="1.1"
   id="svg5"
   inkscape:version="1.2.2 (b0a8486, 2022-12-01)"
   sodipodi:docname="logo.svg"
   xmlns:inkscape="http://www.inkscape.org/namespaces/inkscape"
   xmlns:sodipodi="http://sodipodi.sourceforge.net/DTD/sodipodi-0.dtd"
   xmlns="http://www.w3.org/2000/svg"
   xmlns:svg="http://www.w3.org/2000/svg">
  <sodipodi:namedview
     id="namedview7"
     pagecolor="#ffffff"
     bordercolor="#000000"
     borderopacity="0.25"
     inkscape:showpageshadow="2"
     inkscape:pageopacity="0.0"
     inkscape:pagecheckerboard="0"
     inkscape:deskcolor="#d1d1d1"
     inkscape:document-units="mm"
     showgrid="false"
     inkscape:zoom="0.44690776"
     inkscape:cx="32.445174"
     inkscape:cy="460.94523"
     inkscape:window-width="1309"
     inkscape:window-height="734"
     inkscape:window-x="611"
     inkscape:window-y="1358"
     inkscape:window-maximized="0"
     inkscape:current-layer="layer1" />
  <defs
     id="defs2" />
  <g
     inkscape:label="Layer 1"
     inkscape:groupmode="layer"
     id="layer1">
    <g
       aria-label="Hillzere"
       id="text63"
       style="font-size:50.8px;stroke-width:0.264583"
       transform="translate(-19.728379,-37.068477)">
      <path
         d="M 19.728379,77.556076 V 40.116477 h 5.8928 v 15.290799 h 16.002 V 40.116477 h 5.8928 v 37.439599 h -5.8928 v -17.018 h -16.002 v 17.018 z"
         style="font-weight:500;font-family:'Noto Sans JP';-inkscape-font-specification:'Noto Sans JP Medium'"
         id="path273" />
      <path
         d="m 56.863141,77.556076 v -27.9908 h 5.841999 v 27.9908 z M 59.80954,44.383677 q -1.6764,0 -2.692399,-0.9652 -0.9652,-0.9652 -0.9652,-2.5908 0,-1.524 0.9652,-2.4892 1.015999,-0.9652 2.692399,-0.9652 1.5748,0 2.5908,0.9652 1.016,0.9652 1.016,2.4892 0,1.6256 -1.016,2.5908 -1.016,0.9652 -2.5908,0.9652 z"
         style="font-weight:500;font-family:'Noto Sans JP';-inkscape-font-specification:'Noto Sans JP Medium'"
         id="path275" />
      <path
         d="m 77.28465,78.267276 q -2.133599,0 -3.403599,-0.8636 -1.27,-0.9144 -1.8288,-2.54 -0.5588,-1.6764 -0.5588,-3.9116 V 37.068477 h 5.841999 v 34.188399 q 0,1.1684 0.4064,1.6764 0.4572,0.4572 0.9652,0.4572 0.2032,0 0.4064,0 0.2032,-0.0508 0.6096,-0.1016 l 0.7112,4.4196 q -0.508,0.2032 -1.27,0.3556 -0.762,0.2032 -1.8796,0.2032 z"
         style="font-weight:500;font-family:'Noto Sans JP';-inkscape-font-specification:'Noto Sans JP Medium'"
         id="path277" />
      <path
         d="m 92.422971,78.267276 q -2.1336,0 -3.4036,-0.8636 -1.27,-0.9144 -1.8288,-2.54 -0.5588,-1.6764 -0.5588,-3.9116 V 37.068477 h 5.842 v 34.188399 q 0,1.1684 0.4064,1.6764 0.4572,0.4572 0.9652,0.4572 0.2032,0 0.4064,0 0.2032,-0.0508 0.6096,-0.1016 l 0.7112,4.4196 q -0.508,0.2032 -1.27,0.3556 -0.762,0.2032 -1.8796,0.2032 z"
         style="font-weight:500;font-family:'Noto Sans JP';-inkscape-font-specification:'Noto Sans JP Medium'"
         id="path279" />
      <path
         d="m 99.230092,77.556076 v -3.1496 l 13.766798,-20.1168 h -12.2428 v -4.7244 h 19.6088 v 3.1496 l -13.7668,20.1676 h 14.2748 v 4.6736 z"
         style="font-weight:500;font-family:'Noto Sans JP';-inkscape-font-specification:'Noto Sans JP Medium'"
         id="path281" />
      <path
         d="m 137.61037,78.267276 q -3.81,0 -6.9088,-1.7272 -3.0988,-1.778 -4.9276,-5.0292 -1.8288,-3.302 -1.8288,-7.9248 0,-3.4036 1.0668,-6.096 1.0668,-2.7432 2.8956,-4.6228 1.8288,-1.9304 4.1148,-2.9464 2.286,-1.016 4.6736,-1.016 3.7084,0 6.2484,1.6764 2.54,1.6256 3.86079,4.6228 1.3208,2.9464 1.3208,6.9088 0,0.8636 -0.1016,1.6764 -0.0508,0.762 -0.2032,1.3208 h -18.13559 q 0.254,2.6416 1.3716,4.572 1.1684,1.8796 2.9972,2.9464 1.8796,1.016 4.2672,1.016 1.8796,0 3.5052,-0.5588 1.6256,-0.5588 3.1496,-1.524 l 2.03199,3.7084 q -1.93039,1.27 -4.31799,2.1336 -2.3368,0.8636 -5.08,0.8636 z m -7.9756,-17.2212 h 13.4112 q 0,-3.556 -1.6256,-5.5372 -1.5748,-1.9812 -4.6228,-1.9812 -1.7272,0 -3.2512,0.8636 -1.524,0.8636 -2.5908,2.54 -1.016,1.6764 -1.3208,4.1148 z"
         style="font-weight:500;font-family:'Noto Sans JP';-inkscape-font-specification:'Noto Sans JP Medium'"
         id="path283" />
      <path
         d="m 154.67917,77.556076 v -27.9908 h 4.7752 l 0.508,5.0292 h 0.1016 q 1.524,-2.6924 3.6068,-4.1656 2.0828,-1.524 4.3688,-1.524 1.016,0 1.7272,0.1524 0.7112,0.1524 1.3716,0.4064 l -1.016,5.1308 q -0.762,-0.254 -1.3716,-0.3556 -0.6096,-0.1016 -1.4732,-0.1016 -1.6764,0 -3.556,1.3716 -1.8796,1.3208 -3.2004,4.6736 v 17.3736 z"
         style="font-weight:500;font-family:'Noto Sans JP';-inkscape-font-specification:'Noto Sans JP Medium'"
         id="path285" />
      <path
         d="m 186.35381,78.267276 q -3.81,0 -6.9088,-1.7272 -3.0988,-1.778 -4.9276,-5.0292 -1.8288,-3.302 -1.8288,-7.9248 0,-3.4036 1.0668,-6.096 1.0668,-2.7432 2.8956,-4.6228 1.8288,-1.9304 4.1148,-2.9464 2.286,-1.016 4.6736,-1.016 3.7084,0 6.2484,1.6764 2.54,1.6256 3.8608,4.6228 1.3208,2.9464 1.3208,6.9088 0,0.8636 -0.1016,1.6764 -0.0508,0.762 -0.2032,1.3208 h -18.1356 q 0.254,2.6416 1.3716,4.572 1.1684,1.8796 2.9972,2.9464 1.8796,1.016 4.2672,1.016 1.8796,0 3.5052,-0.5588 1.6256,-0.5588 3.1496,-1.524 l 2.032,3.7084 q -1.9304,1.27 -4.318,2.1336 -2.3368,0.8636 -5.08,0.8636 z m -7.9756,-17.2212 h 13.4112 q 0,-3.556 -1.6256,-5.5372 -1.5748,-1.9812 -4.6228,-1.9812 -1.7272,0 -3.2512,0.8636 -1.524,0.8636 -2.5908,2.54 -1.016,1.6764 -1.3208,4.1148 z"
         style="font-weight:500;font-family:'Noto Sans JP';-inkscape-font-specification:'Noto Sans JP Medium'"
         id="path287" />
    </g>
  </g>
</svg>
